<svg xmlns="http://www.w3.org/2000/svg" xmlns:xlink="http://www.w3.org/1999/xlink" zoomAndPan="magnify" preserveAspectRatio="xMidYMid meet" version="1.0" viewBox="9.61 151.97 364.05 85.95"><defs><g/><clipPath id="977ded7448"><rect x="0" width="374" y="0" height="113"/></clipPath></defs><g transform="matrix(1, 0, 0, 1, 1, 131)"><g clip-path="url(#977ded7448)"><g fill="#4263eb" fill-opacity="1"><g transform="translate(1.049091, 88.533093)"><g><path d="M 22.3125 -51.90625 L 22.3125 -35.0625 L 51.8125 -35.0625 L 51.8125 -23.21875 L 22.3125 -23.21875 L 22.3125 0 L 7.5625 0 L 7.5625 -63.75 L 55.734375 -63.75 L 55.734375 -51.90625 Z M 22.3125 -51.90625 "/></g></g></g><g fill="#4263eb" fill-opacity="1"><g transform="translate(59.234401, 88.533093)"><g><path d="M 6.5625 -67.5625 L 20.765625 -67.5625 L 20.765625 0 L 6.5625 0 Z M 6.5625 -67.5625 "/></g></g></g><g fill="#4263eb" fill-opacity="1"><g transform="translate(86.642498, 88.533093)"><g><path d="M 54.546875 -24.3125 C 54.546875 -24.132812 54.453125 -22.859375 54.265625 -20.484375 L 17.203125 -20.484375 C 17.878906 -17.453125 19.457031 -15.054688 21.9375 -13.296875 C 24.425781 -11.535156 27.523438 -10.65625 31.234375 -10.65625 C 33.785156 -10.65625 36.046875 -11.035156 38.015625 -11.796875 C 39.992188 -12.554688 41.832031 -13.753906 43.53125 -15.390625 L 51.09375 -7.1875 C 46.476562 -1.90625 39.738281 0.734375 30.875 0.734375 C 25.34375 0.734375 20.453125 -0.34375 16.203125 -2.5 C 11.953125 -4.65625 8.671875 -7.644531 6.359375 -11.46875 C 4.054688 -15.289062 2.90625 -19.632812 2.90625 -24.5 C 2.90625 -29.289062 4.046875 -33.613281 6.328125 -37.46875 C 8.609375 -41.320312 11.734375 -44.328125 15.703125 -46.484375 C 19.679688 -48.640625 24.128906 -49.71875 29.046875 -49.71875 C 33.847656 -49.71875 38.191406 -48.6875 42.078125 -46.625 C 45.960938 -44.5625 49.007812 -41.601562 51.21875 -37.75 C 53.4375 -33.894531 54.546875 -29.414062 54.546875 -24.3125 Z M 29.140625 -38.96875 C 25.921875 -38.96875 23.21875 -38.054688 21.03125 -36.234375 C 18.84375 -34.421875 17.507812 -31.9375 17.03125 -28.78125 L 41.15625 -28.78125 C 40.675781 -31.875 39.34375 -34.34375 37.15625 -36.1875 C 34.96875 -38.039062 32.296875 -38.96875 29.140625 -38.96875 Z M 29.140625 -38.96875 "/></g></g></g><g fill="#4263eb" fill-opacity="1"><g transform="translate(142.733339, 88.533093)"><g><path d="M 37.703125 0 L 26.953125 -15.03125 L 15.84375 0 L 0.359375 0 L 19.21875 -24.671875 L 1 -48.984375 L 16.9375 -48.984375 L 27.3125 -34.6875 L 37.96875 -48.984375 L 53.09375 -48.984375 L 34.875 -25.046875 L 53.8125 0 Z M 37.703125 0 "/></g></g></g><g fill="#4263eb" fill-opacity="1"><g transform="translate(196.912157, 88.533093)"><g><path d="M 35.15625 -63.75 C 40.800781 -63.75 45.703125 -62.804688 49.859375 -60.921875 C 54.015625 -59.035156 57.210938 -56.363281 59.453125 -52.90625 C 61.703125 -49.445312 62.828125 -45.347656 62.828125 -40.609375 C 62.828125 -35.941406 61.703125 -31.859375 59.453125 -28.359375 C 57.210938 -24.867188 54.015625 -22.195312 49.859375 -20.34375 C 45.703125 -18.5 40.800781 -17.578125 35.15625 -17.578125 L 22.3125 -17.578125 L 22.3125 0 L 7.5625 0 L 7.5625 -63.75 Z M 34.328125 -29.59375 C 38.765625 -29.59375 42.132812 -30.546875 44.4375 -32.453125 C 46.75 -34.367188 47.90625 -37.085938 47.90625 -40.609375 C 47.90625 -44.191406 46.75 -46.9375 44.4375 -48.84375 C 42.132812 -50.757812 38.765625 -51.71875 34.328125 -51.71875 L 22.3125 -51.71875 L 22.3125 -29.59375 Z M 34.328125 -29.59375 "/></g></g></g><g fill="#4263eb" fill-opacity="1"><g transform="translate(262.199713, 88.533093)"><g><path d="M 26.3125 -49.71875 C 33.90625 -49.71875 39.734375 -47.910156 43.796875 -44.296875 C 47.867188 -40.691406 49.90625 -35.242188 49.90625 -27.953125 L 49.90625 0 L 36.609375 0 L 36.609375 -6.09375 C 33.929688 -1.539062 28.953125 0.734375 21.671875 0.734375 C 17.910156 0.734375 14.644531 0.0976562 11.875 -1.171875 C 9.113281 -2.453125 7.003906 -4.210938 5.546875 -6.453125 C 4.097656 -8.703125 3.375 -11.253906 3.375 -14.109375 C 3.375 -18.660156 5.085938 -22.242188 8.515625 -24.859375 C 11.941406 -27.472656 17.238281 -28.78125 24.40625 -28.78125 L 35.703125 -28.78125 C 35.703125 -31.875 34.757812 -34.253906 32.875 -35.921875 C 30.988281 -37.585938 28.164062 -38.421875 24.40625 -38.421875 C 21.789062 -38.421875 19.222656 -38.007812 16.703125 -37.1875 C 14.191406 -36.375 12.054688 -35.269531 10.296875 -33.875 L 5.1875 -43.796875 C 7.863281 -45.679688 11.066406 -47.140625 14.796875 -48.171875 C 18.523438 -49.203125 22.363281 -49.71875 26.3125 -49.71875 Z M 25.21875 -8.828125 C 27.644531 -8.828125 29.800781 -9.390625 31.6875 -10.515625 C 33.570312 -11.640625 34.910156 -13.296875 35.703125 -15.484375 L 35.703125 -20.484375 L 25.953125 -20.484375 C 20.117188 -20.484375 17.203125 -18.570312 17.203125 -14.75 C 17.203125 -12.925781 17.914062 -11.484375 19.34375 -10.421875 C 20.769531 -9.359375 22.726562 -8.828125 25.21875 -8.828125 Z M 25.21875 -8.828125 "/></g></g></g><g fill="#4263eb" fill-opacity="1"><g transform="translate(317.471059, 88.533093)"><g><path d="M 55.1875 -48.984375 L 33.0625 3 C 30.8125 8.644531 28.03125 12.617188 24.71875 14.921875 C 21.414062 17.234375 17.425781 18.390625 12.75 18.390625 C 10.195312 18.390625 7.675781 17.992188 5.1875 17.203125 C 2.695312 16.421875 0.664062 15.332031 -0.90625 13.9375 L 4.28125 3.828125 C 5.375 4.796875 6.632812 5.550781 8.0625 6.09375 C 9.488281 6.644531 10.898438 6.921875 12.296875 6.921875 C 14.234375 6.921875 15.804688 6.445312 17.015625 5.5 C 18.234375 4.5625 19.332031 3 20.3125 0.8125 L 20.484375 0.359375 L -0.734375 -48.984375 L 13.9375 -48.984375 L 27.6875 -15.75 L 41.53125 -48.984375 Z M 55.1875 -48.984375 "/></g></g></g></g></g></svg>