<?xml version="1.0" encoding="UTF-8"?>
<svg version="1.1" xmlns="http://www.w3.org/2000/svg" width="500" height="500">
<path d="M0 0 C165 0 330 0 500 0 C500 165 500 330 500 500 C335 500 170 500 0 500 C0 335 0 170 0 0 Z " fill="#FEFEFE" transform="translate(0,0)"/>
<path d="M0 0 C5.1975 -0.0825 10.395 -0.165 15.75 -0.25 C17.36358398 -0.28641602 18.97716797 -0.32283203 20.63964844 -0.36035156 C30.49617471 -0.43551818 40.28348669 0.13745865 48.5 6.3125 C54.70118212 12.97877078 55.68329524 17.53601842 55.375 26.62109375 C54.64942186 33.1588551 52.44548156 37.0860515 47.4375 41.3125 C37.43523635 48.03563326 26.55556508 47.27733356 15 47 C15 52.61 15 58.22 15 64 C10.05 64 5.1 64 0 64 C0 42.88 0 21.76 0 0 Z " fill="#6B82EA" transform="translate(324,224)"/>
<path d="M0 0 C5.24074066 3.4058818 9.81791479 8.10865214 11.70703125 14.109375 C11.70703125 18.399375 11.70703125 22.689375 11.70703125 27.109375 C-0.17296875 27.109375 -12.05296875 27.109375 -24.29296875 27.109375 C-21.50037058 32.07009381 -21.50037058 32.07009381 -17.29296875 35.109375 C-10.4017242 36.10078113 -4.38903706 35.43450317 1.70703125 32.109375 C4.01703125 34.419375 6.32703125 36.729375 8.70703125 39.109375 C5.32658604 44.64101262 0.78168404 46.55946359 -5.29296875 48.109375 C-13.79322632 49.10420358 -21.53582926 48.31928951 -28.70703125 43.48046875 C-35.19640444 38.24880796 -38.36931949 32.81113293 -39.69921875 24.6015625 C-40.12067297 17.87936775 -38.11531813 12.59481389 -34.29296875 7.109375 C-25.63420907 -2.33495763 -12.01956705 -5.55152117 0 0 Z " fill="#6A81EA" transform="translate(136.29296875,240.890625)"/>
<path d="M0 0 C1.12716431 -0.0148645 1.12716431 -0.0148645 2.27709961 -0.0300293 C7.97007015 0.05657713 14.00737897 0.85152032 18.40625 4.81835938 C23.21429771 10.3881472 24.16764331 14.47291748 24.0703125 21.703125 C24.0674826 22.49652283 24.06465271 23.28992065 24.06173706 24.10736084 C24.05056779 26.63422917 24.02546944 29.16073932 24 31.6875 C23.98996598 33.4036407 23.98084087 35.11978698 23.97265625 36.8359375 C23.95063914 41.03659574 23.91613187 45.2369872 23.875 49.4375 C19.585 49.4375 15.295 49.4375 10.875 49.4375 C10.38 47.4575 10.38 47.4575 9.875 45.4375 C9.20017578 45.97890625 9.20017578 45.97890625 8.51171875 46.53125 C2.74993127 50.68805059 -2.11641582 51.53928616 -9.125 50.4375 C-14.47846099 48.75728186 -18.05926555 46.22004574 -21.125 41.4375 C-22.33143566 37.81819302 -22.44768559 35.24518995 -22.125 31.4375 C-19.45099149 26.47148419 -16.75511938 23.54279557 -11.578125 21.3671875 C-7.21264057 20.19186477 -3.24377552 20.21932762 1.25 20.3125 C2.08144531 20.32152344 2.91289062 20.33054687 3.76953125 20.33984375 C5.80481337 20.3632378 7.83994564 20.39910275 9.875 20.4375 C8.88127988 16.18306818 8.88127988 16.18306818 6.04296875 13.08203125 C-1.26471474 10.9094767 -8.25569361 12.64995538 -15.125 15.4375 C-15.99158615 14.17510288 -16.84292059 12.90222499 -17.6875 11.625 C-18.40099609 10.56345703 -18.40099609 10.56345703 -19.12890625 9.48046875 C-20.125 7.4375 -20.125 7.4375 -19.125 4.4375 C-13.41195956 0.39920428 -6.75117149 0.04646415 0 0 Z " fill="#6981EA" transform="translate(407.125,238.5625)"/>
<path d="M0 0 C15.84 0 31.68 0 48 0 C48 3.63 48 7.26 48 11 C36.78 11 25.56 11 14 11 C14 16.61 14 22.22 14 28 C23.9 28 33.8 28 44 28 C44 31.96 44 35.92 44 40 C34.43 40 24.86 40 15 40 C15 47.59 15 55.18 15 63 C10.05 63 5.1 63 0 63 C0 42.21 0 21.42 0 0 Z " fill="#687FEA" transform="translate(17,225)"/>
<path d="M0 0 C4.95 0 9.9 0 15 0 C19.29 10.23 23.58 20.46 28 31 C31.86617181 23.40803752 31.86617181 23.40803752 35.203125 15.68359375 C35.5434375 14.81798828 35.88375 13.95238281 36.234375 13.06054688 C36.56953125 12.19494141 36.9046875 11.32933594 37.25 10.4375 C37.94042659 8.66447437 38.63301466 6.89228837 39.328125 5.12109375 C39.77526855 3.96758423 39.77526855 3.96758423 40.23144531 2.79077148 C41 1 41 1 42 0 C44.18639453 -0.07258946 46.37500389 -0.08373783 48.5625 -0.0625 C50.35880859 -0.04896484 50.35880859 -0.04896484 52.19140625 -0.03515625 C53.11824219 -0.02355469 54.04507813 -0.01195312 55 0 C54.30687315 4.95809286 52.33009555 9.26026702 50.359375 13.81640625 C49.99531555 14.66871323 49.6312561 15.5210202 49.25616455 16.39915466 C48.0919255 19.12221497 46.92115987 21.84241008 45.75 24.5625 C44.59737091 27.25172623 43.44608067 29.94152236 42.29502869 32.63142395 C41.55050425 34.36983444 40.80471971 36.10770583 40.05763245 37.84501648 C37.65633023 43.43428894 35.32212503 49.04427781 33.07299805 54.69677734 C30.81589037 59.54172702 27.62715786 62.79900253 23.375 65.9375 C15.27068646 68.48885796 7.60331854 67.50922394 0 64 C0.89049189 59.76313335 2.79447661 56.69958761 5 53 C5.70125 53.33 6.4025 53.66 7.125 54 C10.382056 55.13288904 12.57697562 55.43698184 16 55 C18.56338689 53.52006844 18.56338689 53.52006844 20 51 C19.66655621 45.39664805 17.27618235 40.62521444 15 35.5859375 C14.60425781 34.69387604 14.20851563 33.80181458 13.80078125 32.88272095 C12.54035274 30.04386789 11.27078304 27.20923125 10 24.375 C8.73051288 21.53307997 7.46304207 18.69029915 6.19921875 15.84585571 C5.41375217 14.07909559 4.62481683 12.31387257 3.83203125 10.55038452 C3.29642578 9.34861069 3.29642578 9.34861069 2.75 8.12255859 C2.43546875 7.42117767 2.1209375 6.71979675 1.796875 5.99716187 C1 4 1 4 0 0 Z " fill="#6980EA" transform="translate(436,239)"/>
<path d="M0 0 C4.62 0 9.24 0 14 0 C14.33 1.32 14.66 2.64 15 4 C15.86625 3.34 16.7325 2.68 17.625 2 C23.79779534 -1.52012769 31.79460432 -1.10702784 38.5078125 0.66015625 C43.45724647 2.83376699 46.45324883 6.28905685 49 11 C50.23180134 14.69540402 50.12412112 18.10303378 50.09765625 21.94921875 C50.0962413 22.72183548 50.09482635 23.49445221 50.09336853 24.29048157 C50.08777466 26.75619389 50.07522333 29.22181515 50.0625 31.6875 C50.05748421 33.36002473 50.05292144 35.03255088 50.04882812 36.70507812 C50.03780724 40.80342046 50.02054684 44.90169479 50 49 C45.38 49 40.76 49 36 49 C35.94392578 45.83857422 35.94392578 45.83857422 35.88671875 42.61328125 C35.84044295 40.56117665 35.78923169 38.5092501 35.73754883 36.45727539 C35.70439443 35.03648798 35.67633308 33.61557187 35.65356445 32.19458008 C35.61984153 30.1460918 35.56752255 28.0987728 35.51171875 26.05078125 C35.48553467 24.82012939 35.45935059 23.58947754 35.43237305 22.3215332 C34.97040027 18.77261188 34.13455453 16.8431285 32 14 C28.52736727 12.26368364 24.78806987 12.39809598 21 13 C18.24430553 15.18159145 16.56411253 16.87177494 15 20 C14.84530633 22.17674783 14.74997894 24.3578348 14.68359375 26.5390625 C14.64169922 27.84101563 14.59980469 29.14296875 14.55664062 30.484375 C14.51682701 31.86458045 14.47711478 33.24478883 14.4375 34.625 C14.39430593 36.01303415 14.35069135 37.40105528 14.30664062 38.7890625 C14.20028066 42.19258129 14.09961082 45.596277 14 49 C9.38 49 4.76 49 0 49 C0 32.83 0 16.66 0 0 Z " fill="#677FEA" transform="translate(237,239)"/>
<path d="M0 0 C5.000868 -0.78013541 10.09718664 -1.55142977 15 0 C19.42816078 3.33933163 22.2426488 8.27681959 25 13 C28.10731874 10.05269269 30.37609044 7.45140417 32.375 3.6875 C33.84375 1.60546875 33.84375 1.60546875 36 0 C41.08843184 -0.70019388 45.89916636 -0.46725194 51 0 C45.91050003 8.11743033 39.97345982 15.52786075 34 23 C35.43761358 26.10069208 37.16750172 28.71427926 39.22265625 31.44140625 C39.84333984 32.27220703 40.46402344 33.10300781 41.10351562 33.95898438 C42.41279408 35.69903242 43.72269317 37.43861364 45.03320312 39.17773438 C45.65259766 40.00724609 46.27199219 40.83675781 46.91015625 41.69140625 C47.47871338 42.44623291 48.04727051 43.20105957 48.63305664 43.97875977 C50 46 50 46 51 49 C40.06702163 50.56951959 40.06702163 50.56951959 35 49 C31.59001383 46.2958137 29.64307185 42.61782545 27.6015625 38.84375 C27.07304687 37.9053125 26.54453125 36.966875 26 36 C25.34 36 24.68 36 24 36 C22.3981038 37.94872877 20.90663524 39.89277939 19.4375 41.9375 C15.03760593 47.96239407 15.03760593 47.96239407 14 49 C11.46950598 49.07313567 8.96695163 49.09247527 6.4375 49.0625 C5.37112305 49.05573242 5.37112305 49.05573242 4.28320312 49.04882812 C2.52209987 49.03700864 0.76103964 49.01907263 -1 49 C2.17193104 43.26085859 6.37726744 38.27380908 10.4375 33.15039062 C11.00726563 32.41884766 11.57703125 31.68730469 12.1640625 30.93359375 C12.68436035 30.27415771 13.2046582 29.61472168 13.74072266 28.93530273 C15.10604293 26.83702941 15.82361833 25.50395188 16 23 C14.88174196 20.87142582 14.88174196 20.87142582 13.10546875 18.84765625 C12.47962891 18.07099609 11.85378906 17.29433594 11.20898438 16.49414062 C10.20834961 15.29047852 10.20834961 15.29047852 9.1875 14.0625 C7.88397354 12.47442794 6.58560854 10.88210223 5.29296875 9.28515625 C4.7105542 8.58269775 4.12813965 7.88023926 3.52807617 7.15649414 C1.89999643 4.85887018 0.94112521 2.64516072 0 0 Z " fill="#6980EA" transform="translate(152,239)"/>
<path d="M0 0 C4.62 0 9.24 0 14 0 C14 22.11 14 44.22 14 67 C9.38 67 4.76 67 0 67 C0 44.89 0 22.78 0 0 Z " fill="#6980EA" transform="translate(74,221)"/>
<path d="M0 0 C2.866875 -0.061875 5.73375 -0.12375 8.6875 -0.1875 C10.02880981 -0.22846802 10.02880981 -0.22846802 11.3972168 -0.27026367 C16.08935444 -0.3192004 19.22122733 -0.09960512 23 3 C25.68209911 7.02314866 25.68843415 10.27219919 25 15 C22.88608123 18.49890004 21.88263941 19.70578686 18 21 C16.59175107 21.08021999 15.18002769 21.10765977 13.76953125 21.09765625 C13.04612549 21.09515869 12.32271973 21.09266113 11.57739258 21.09008789 C10.66497803 21.08098389 9.75256348 21.07187988 8.8125 21.0625 C5.904375 21.041875 2.99625 21.02125 0 21 C0 14.07 0 7.14 0 0 Z " fill="#FEFEFE" transform="translate(339,237)"/>
<path d="M0 0 C3.48091692 0.29062684 4.16219783 0.88240639 7.0625 3.25 C9.28515639 6.42727366 9.07295345 8.74504934 8.47827148 12.56103516 C7.67363771 16.24370305 6.38285701 19.68795856 5 23.1875 C4.72671875 23.90615234 4.4534375 24.62480469 4.171875 25.36523438 C2.15826613 30.59173387 2.15826613 30.59173387 1 31.75 C-0.51928038 31.82179964 -2.04167482 31.83392007 -3.5625 31.8125 C-4.38878906 31.80347656 -5.21507812 31.79445312 -6.06640625 31.78515625 C-7.02353516 31.76775391 -7.02353516 31.76775391 -8 31.75 C-6.07289294 21.19191344 -6.07289294 21.19191344 -4 16.75 C-4.639375 16.46125 -5.27875 16.1725 -5.9375 15.875 C-8 14.75 -8 14.75 -9 12.75 C-9.55881444 8.65202743 -9.1370529 6.98127677 -7 3.375 C-3.45714286 0.275 -3.45714286 0.275 0 0 Z " fill="#6B82EA" transform="translate(305,219.25)"/>
<path d="M0 0 C1.23556641 0.01740234 1.23556641 0.01740234 2.49609375 0.03515625 C3.32238281 0.04417969 4.14867187 0.05320313 5 0.0625 C5.63808594 0.07410156 6.27617187 0.08570313 6.93359375 0.09765625 C6.45588852 2.0355171 5.97637804 3.97293299 5.49609375 5.91015625 C5.22925781 6.98910156 4.96242187 8.06804687 4.6875 9.1796875 C4.17281963 11.17174055 3.584222 13.14577149 2.93359375 15.09765625 C3.57296875 15.38640625 4.21234375 15.67515625 4.87109375 15.97265625 C6.93359375 17.09765625 6.93359375 17.09765625 7.93359375 19.09765625 C8.33551223 22.71492261 8.13468227 24.69547921 6.49609375 27.97265625 C3.23120793 30.68012254 1.20214178 30.75614652 -2.94140625 30.53125 C-5.9811058 29.91101719 -7.30393549 28.59448982 -9.06640625 26.09765625 C-10.74805298 22.7343628 -10.53540556 19.60136973 -9.42236328 16.03271484 C-8.5431529 13.75785245 -7.60292459 11.52101441 -6.62890625 9.28515625 C-6.30341797 8.50978516 -5.97792969 7.73441406 -5.64257812 6.93554688 C-2.75491771 0.1301946 -2.75491771 0.1301946 0 0 Z " fill="#6A81EA" transform="translate(217.06640625,220.90234375)"/>
<path d="M0 0 C4.11062053 1.5810079 6.81375243 3.11333765 9 7 C9 7.99 9 8.98 9 10 C1.41 10 -6.18 10 -14 10 C-13.02648784 5.13243919 -12.56564296 3.84882492 -8.7421875 0.94921875 C-5.71294534 -0.70124278 -3.34827446 -0.47832492 0 0 Z " fill="#F9FAFE" transform="translate(126,249)"/>
<path d="M0 0 C0.70189453 0.01353516 1.40378906 0.02707031 2.12695312 0.04101562 C3.85579829 0.07629818 5.58424765 0.13010417 7.3125 0.1875 C7.546875 5.8984375 7.546875 5.8984375 5.4375 8.5 C2.41999008 10.89625788 0.67076919 11.36270652 -3.125 11.4375 C-3.90746094 11.46328125 -4.68992187 11.4890625 -5.49609375 11.515625 C-8.20864994 11.10946685 -9.05370852 10.35214487 -10.6875 8.1875 C-11.09895137 5.44449085 -11.14458786 3.90822654 -9.64453125 1.54296875 C-6.63283967 -0.54297332 -3.52055489 -0.12819948 0 0 Z " fill="#FBFCFE" transform="translate(409.6875,267.8125)"/>
</svg>
